<?xml version="1.0" encoding="UTF-8"?>
<svg id="Layer_1" data-name="Layer 1" xmlns="http://www.w3.org/2000/svg" viewBox="0 0 1439.65 345.48">
  <defs>
    <style>
      .cls-1 {
        fill: #00dc00;
      }
    </style>
  </defs>
  <g>
    <path d="M0,340.61V0h45.42v136.25h1.62c7.84-14.05,18.79-24.8,32.85-32.24,14.05-7.43,30.68-11.15,49.87-11.15,30.55,0,54.81,8.99,72.79,26.96,17.97,17.98,26.96,41.97,26.96,71.98v148.82h-45.42v-141.11c0-21.9-5.88-38.52-17.64-49.88-11.76-11.35-28.99-17.03-51.7-17.03s-39.61,5.68-51.5,17.03c-11.9,11.35-17.84,27.98-17.84,49.88v141.11H0Z"/>
    <path d="M392.52,345.07c-31.36,0-55.96-8.72-73.8-26.15-17.84-17.44-26.76-40.88-26.76-70.35V97.32h45.42v141.52c0,21.9,5.68,38.46,17.03,49.67,11.35,11.22,27.84,16.83,49.47,16.83,22.97,0,40.75-5.88,53.32-17.64,12.57-11.76,18.85-28.18,18.85-49.27V97.32h45.42v196.26h23.52v47.04h-48.66v-37.31h-17.03c-8.65,13.52-20.27,23.86-34.87,31.02-14.6,7.16-31.9,10.74-51.9,10.74Z"/>
    <path d="M744.65,345.48c-19.47,0-36.23-3.59-50.28-10.75-14.06-7.16-25.14-17.64-33.25-31.43h-17.03v37.31h-48.66v-47.04h23.52V0h45.42v136.65h1.62c7.3-14.32,18.11-25.27,32.44-32.84,14.32-7.56,31.08-11.35,50.28-11.35,22.97,0,42.78,5.14,59.4,15.41,16.62,10.28,29.4,24.88,38.32,43.79,8.92,18.92,13.38,41.36,13.38,67.31s-4.53,48.39-13.59,67.31c-9.06,18.92-22.1,33.52-39.13,43.79-17.03,10.28-37.85,15.41-62.45,15.41ZM737.76,306.55c24.33,0,43.18-7.7,56.56-23.11,13.38-15.41,20.07-36.9,20.07-64.48s-6.69-49.06-20.07-64.47c-13.38-15.41-32.24-23.11-56.56-23.11-22.17,0-39.94,6.35-53.33,19.06-13.38,12.71-20.07,29.6-20.07,50.69v35.68c0,21.09,6.69,37.98,20.07,50.69,13.38,12.71,31.16,19.06,53.33,19.06Z"/>
    <path d="M1032.55,345.48c-25.14,0-47.11-5.2-65.89-15.61-18.79-10.4-33.32-25.07-43.59-44-10.28-18.92-15.41-41.22-15.41-66.91s5.13-47.98,15.41-66.9c10.27-18.92,24.8-33.59,43.59-44,18.79-10.4,40.75-15.61,65.89-15.61s48.18,5.14,66.7,15.41c18.51,10.28,32.85,24.88,42.98,43.79,10.14,18.92,15.21,41.36,15.21,67.31s-5.07,48.05-15.21,67.11c-10.14,19.06-24.53,33.73-43.18,44-18.65,10.28-40.82,15.41-66.5,15.41ZM1032.55,305.74c25.14,0,44.67-7.64,58.59-22.91,13.92-15.27,20.88-36.56,20.88-63.87s-6.96-48.93-20.88-64.07c-13.93-15.14-33.45-22.71-58.59-22.71s-44.34,7.64-58.39,22.91c-14.06,15.28-21.09,36.56-21.09,63.86s7.02,48.6,21.09,63.87c14.05,15.28,33.51,22.91,58.39,22.91Z"/>
    <path d="M1210.15,340.61v-196.26h-23.52v-47.04h48.66v37.31h17.03c8.37-13.52,19.87-23.86,34.47-31.02,14.6-7.16,31.76-10.74,51.5-10.74,31.36,0,56.09,8.99,74.21,26.96,18.11,17.98,27.17,41.97,27.17,71.98v148.82h-45.42v-141.11c0-21.9-5.88-38.52-17.64-49.88-11.76-11.35-29-17.03-51.7-17.03s-39.6,5.68-51.5,17.03c-11.9,11.35-17.84,27.98-17.84,49.88v141.11h-45.42Z"/>
  </g>
  <rect class="cls-1" x="1186.58" y="97.1" width="48.9" height="47.38"/>
</svg>